<svg version="1" xmlns="http://www.w3.org/2000/svg" width="933.333" height="933.333" viewBox="0 0 700.000000 700.000000"><path d="M291.5 54.2c-4.4 4.5-21.4 19.7-28.5 25.4-14 11.3-28.3 19.7-41 24-5.9 2-20.5 2.5-33 1.2-3.6-.4-8.7-1-11.5-1.3-14.3-1.5-17.3-2-25.6-4.5-7.8-2.3-17.3-8.5-20.9-13.5-1.4-1.9-2.9-3.4-3.5-3.4-.5 0-3.2 2.6-6 5.8-4.2 4.8-9.6 10.7-24.7 27.2-1.2 1.4-5.4 6.1-9.3 10.4-3.8 4.3-8.1 9-9.5 10.5-3.7 4-17.3 19.1-18.5 20.4-.5.7-3.7 4.1-7 7.6-5.3 5.7-19.3 21.2-23.5 26-.8.9-5.4 5.9-10.1 11.1-16.9 18.3-17.5 19.1-15 20.1.8.3 10.3 8.9 31.5 28.8 4.4 4.1 10.8 10 14.1 13 3.3 3.1 8.5 7.9 11.5 10.7 3 2.8 7.1 6.5 9 8.3 1.9 1.8 8.6 8 14.9 13.9 6.3 5.8 12.3 11.4 13.5 12.4 1.1 1 5.3 4.8 9.2 8.5 15.8 15 28.7 26.7 29.6 27 .5.2 1.7-.5 2.7-1.7 2-2.2 12.4-13.5 38-41 5.8-6.3 13.3-14.4 16.6-18 3.3-3.6 8.7-9.3 12-12.8l6-6.3 7.1 6.8c3.9 3.7 9.8 9.1 13 12.1 3.3 3 11.1 10.2 17.4 16.1 6.3 5.9 12.7 11.8 14.2 13.2 2.3 2.1 22.9 21.2 27.8 25.8.9.8 6.7 6.2 13 12 20.2 18.6 22 20.4 30.3 28.1l8 7.6-3.5 5.9c-2 3.2-4.5 7.5-5.6 9.4-3.6 6.5-15.2 26.5-16.2 28-.6.8-1.3 2.2-1.7 3-.4.8-2.4 4.3-4.5 7.8-2.1 3.4-3.8 6.4-3.8 6.6 0 .2-2.4 4.4-5.4 9.3-2.9 4.9-6.4 10.9-7.8 13.3-1.4 2.5-10.7 18.6-20.7 35.9-10 17.3-19.2 33.2-20.5 35.5-1.3 2.3-9.3 16-17.8 30.6-8.5 14.6-15.7 26.9-15.9 27.5-1.8 4.3-11.4 19.3-12.1 18.8-.5-.3-.7-.7-.4-1 .7-.7-2.4-10.3-5.1-15.8-9.2-18.1-28.6-35.7-52.8-47.8-12.5-6.2-31.1-12.6-42-14.4-33-5.5-57.9-2.6-77.7 9-4.9 2.8-12.9 10.7-15.8 15.4-14.1 23.2-.7 55.2 33.3 79.7 8.1 5.8 32.9 18.6 36 18.6.9 0 1.8.4 2.1.8.4.7 10.1 3.3 12.1 3.3.2 0 1.9.5 3.7 1 3.1.9 24.1 1.3 29.8.5 4.9-.6 11.6-1.8 18.5-3.1 20.4-4.1 52.8-16.6 54.1-20.9.4-1.2.9-2.3 1.3-2.6.3-.3 1.2-1.5 1.8-2.7 1.2-2.2 24.2-40.8 67-112.8 11.8-19.8 21.9-36.7 22.4-37.5 3.1-5.1 40.5-68.2 42.4-71.5 1.2-2.2 10.7-18.2 21-35.5 10.4-17.3 19.3-32.4 19.9-33.5.7-1.1 3.3-5.6 5.9-10 5.2-8.5 5.3-8.8 10.9-18 2-3.3 4.7-7.9 6-10.1 1.2-2.3 9-15.4 17.1-29 8.2-13.7 15.3-25.6 15.8-26.4.4-.8 2.7-4.5 4.9-8.3 2.2-3.7 4-7.2 4-7.7 0-.6.4-1 .9-1s1.1-.8 1.5-1.8c.3-.9 1.1-2.6 1.8-3.7 3.1-4.7 7.8-12.6 7.8-12.9 0-.3 2.3-4.2 5.1-8.8 4.9-7.8 7.8-12.7 10.3-17.3.6-1.1 1.9-3.1 2.7-4.5 1.5-2.2 13.9-23.2 17.9-30.1.8-1.5 3.3-5.6 5.5-9.3l4-6.7 7 .6c3.8.3 7.7.8 8.5 1 .8.2 3.8.7 6.5 1 4.2.4 13.9 2.1 23.2 3.9 16.9 3.4 37.4 11.9 45.3 18.8 2.1 1.8 6 7.5 6 8.7 0 .5 2.4 3.4 5.3 6.5 7.5 7.9 14.5 10.9 25.6 11 4.7 0 10.6-.3 13.1-.7 2.5-.4 8.1-1.3 12.5-2 4.4-.8 10.6-1.3 13.7-1.3 3.1.1 5.4-.2 5-.5-.4-.4-3.2-2.3-6.2-4.2-8.3-5.6-18.6-15.3-24.9-23.8-6.8-9-15.7-26.6-19.9-39.4-4.6-13.9-7.1-18.5-14-25.3C599.9 87 585.4 80 572 77.6c-1.4-.2-3.6-.7-5-1-5-1.2-10.8-1.7-27-2.3l-16.5-.5-3.3 5.8c-3.7 6.7-4.3 7.8-19.2 33.4-20.7 35.6-80.3 138.5-82.8 143-1.3 2.5-2.8 4.9-3.2 5.5-.7.9-4.1 6.9-7.4 13-.6 1.1-1.9 3.1-2.7 4.5-.9 1.4-6.2 10.5-11.9 20.3-5.6 9.8-10.6 17.6-11 17.5-.5-.2-5.9-5-12.1-10.8-6.2-5.8-14.2-13.2-17.7-16.5-3.6-3.3-7.7-7.1-9.2-8.5-3.5-3.3-22.6-21-26.5-24.6-1.6-1.5-8.1-7.4-14.3-13.2-6.2-5.8-12.5-11.7-14-13-14.6-13.3-23.2-21.7-23.2-22.6 0-.6 2.4-3.6 5.3-6.7 2.9-3 8.8-9.5 13.2-14.4 4.4-4.9 8.9-9.9 10-11 1.6-1.7 12.4-13.7 20-22.1.5-.6 2.8-3.1 5-5.5s7.8-8.7 12.5-13.9c7.5-8.4 14.5-16.1 19-21 4.3-4.6 4.3-4.6.7-8.2-1.8-1.8-10-9.6-18.2-17.3-8.2-7.7-17.2-16.3-20-19-12.6-12.1-17.4-16.5-18.2-16.4-.4 0-1.7.9-2.8 2.1z"/><path d="M399.7 338.2c-.8 1.3-3.2 5.2-5.3 8.8-2.2 3.6-4.3 7.2-4.7 8-.4.8-6.9 11.8-14.6 24.4l-13.9 22.8 6.2 5.6c3.3 3.1 8.6 7.9 11.6 10.8 3 2.9 6.5 6.1 7.8 7.2 1.3 1.1 7.2 6.6 13.1 12.1 6 5.6 12.1 11.3 13.7 12.8 1.6 1.4 7.9 7.2 13.9 12.8 6.1 5.7 13 12.1 15.5 14.3 2.5 2.2 6.8 6.2 9.6 8.9 2.7 2.6 10.1 9.5 16.4 15.3 6.3 5.8 13.7 12.6 16.5 15.2 2.7 2.5 6.4 5.9 8 7.4 1.7 1.5 6.4 5.9 10.5 9.8 4.2 3.9 12.7 11.8 19 17.6 6.2 5.8 12.5 11.6 14 13 1.4 1.4 7.8 7.2 14.1 13s12.1 11.2 12.9 12c.8.8 4.2 4 7.5 7 5.6 5.2 24 22.2 36.5 33.8l5.5 5.2 6.5-6.8c6.1-6.4 23.8-25.4 29.7-31.8 1.4-1.6 6.8-7.4 11.9-12.9 5-5.5 10.4-11.3 11.8-12.8 1.4-1.5 2.6-3 2.6-3.3 0-.5-2-2.4-8.6-8.3-2.2-1.9-6.4-5.7-9.4-8.5-3.1-2.8-9.6-8.7-14.5-13.1s-9.6-8.7-10.5-9.5c-.9-.8-5.6-5.1-10.5-9.5-5-4.4-9.9-8.9-11-10-1.2-1.1-5.6-5.2-10-9-4.4-3.9-8.6-7.7-9.5-8.5-.9-.8-5.3-4.9-9.9-9-9-8-11.2-10-18.8-17-19.9-18.3-20.2-18.5-26.2-19.1-14-1.5-21.4-5.7-39.3-22.5-8.4-7.7-27.5-25.4-31.4-29.1-1.7-1.5-8.2-7.5-14.4-13.3-6.2-5.8-12.5-11.6-14-13-1.5-1.4-7.6-7.1-13.6-12.6-6-5.6-13.4-12.5-16.4-15.3-3-2.8-5.8-5.1-6.2-5.1-.4 0-1.4 1-2.1 2.2z"/></svg>