<?xml version="1.0" standalone="no"?>
<!DOCTYPE svg PUBLIC "-//W3C//DTD SVG 20010904//EN"
 "http://www.w3.org/TR/2001/REC-SVG-20010904/DTD/svg10.dtd">
<svg version="1.0" xmlns="http://www.w3.org/2000/svg"
 width="1024.000000pt" height="1024.000000pt" viewBox="0 0 1024.000000 1024.000000"
 preserveAspectRatio="xMidYMid meet">
<metadata>
Created by potrace 1.11, written by Peter Selinger 2001-2013
</metadata>
<g transform="translate(0.000000,1024.000000) scale(0.100000,-0.100000)"
fill="#000000" stroke="none">
<path d="M3467 8274 c-1 -1 -38 -5 -82 -8 -131 -11 -180 -17 -240 -32 -5 -1
-21 -4 -35 -7 -59 -11 -157 -41 -225 -68 -16 -7 -32 -13 -35 -14 -21 -6 -106
-51 -112 -59 -4 -6 -8 -8 -8 -3 0 8 -71 -36 -107 -67 -13 -11 -23 -28 -23 -37
0 -10 -4 -20 -9 -23 -5 -3 -11 -20 -15 -38 -3 -18 -8 -42 -10 -53 -8 -45 -16
-104 -22 -170 -8 -96 -12 -608 -5 -675 10 -89 10 -89 -72 -84 -69 3 -201 9
-450 19 -65 3 -123 7 -128 10 -5 4 -9 1 -9 -5 0 -6 -4 -9 -9 -5 -25 15 -694
24 -806 10 -38 -5 -79 -9 -90 -10 -33 -3 -176 -56 -224 -83 -170 -94 -288
-229 -326 -373 -7 -25 -13 -126 -15 -230 -6 -476 -9 -693 -15 -1064 -14 -890
-28 -2047 -28 -2325 0 -225 5 -356 18 -417 33 -156 65 -241 127 -338 71 -111
126 -143 264 -151 135 -8 676 -8 1409 0 1114 13 3286 28 3623 25 45 0 101 0
125 1 139 2 239 0 248 -5 5 -4 9 -3 9 2 0 4 554 9 1231 10 1304 3 1895 8 1944
17 48 9 100 19 105 21 45 10 121 44 167 74 96 62 154 144 167 236 14 103 20
164 31 340 2 28 6 85 9 127 6 84 15 285 22 473 6 171 5 837 -1 985 -13 293
-15 340 -20 430 -12 204 -14 238 -20 340 -9 170 -14 250 -20 340 -4 47 -8 117
-11 155 -8 122 -12 178 -18 250 -4 39 -8 99 -11 135 -5 68 -10 121 -19 205 -3
28 -8 77 -12 110 -12 113 -18 154 -38 255 -22 108 -22 109 -46 173 -26 69 -56
92 -138 102 -32 4 -68 9 -82 11 -14 2 -63 6 -110 9 -46 4 -87 8 -91 11 -4 2
-10 0 -14 -6 -4 -6 -11 -7 -17 -3 -7 3 -50 8 -97 10 -140 7 -897 6 -1023 0
-86 -5 -119 -3 -127 6 -12 15 -9 193 11 742 1 18 -12 149 -17 175 -3 14 -7 36
-10 49 -25 135 -96 237 -197 286 -71 34 -114 42 -278 50 -114 6 -165 8 -455
20 -184 7 -300 12 -475 20 -145 7 -199 9 -440 19 -85 4 -195 9 -245 11 -49 2
-151 7 -225 10 -74 3 -189 7 -255 10 -66 3 -167 7 -225 10 -136 6 -378 16
-505 20 -55 3 -156 7 -225 10 -386 16 -938 33 -943 29z m861 -354 c6 0 18 0
25 1 36 2 1014 -23 1397 -37 85 -3 205 -7 265 -9 162 -5 388 -14 490 -21 49
-3 130 -7 180 -9 178 -8 454 -28 560 -41 22 -2 65 -7 95 -10 30 -3 66 -7 80
-10 14 -2 42 -7 64 -10 105 -16 126 -42 146 -179 6 -44 13 -91 15 -105 25
-154 24 -634 0 -659 -9 -9 -69 -12 -250 -13 -175 -2 -270 6 -289 21 -9 8 -12
66 -11 225 2 216 -5 317 -26 369 -11 26 -58 60 -76 55 -4 -1 -37 1 -73 5 -154
17 -327 25 -843 42 -763 24 -2179 37 -2322 22 -58 -6 -153 -26 -200 -41 -30
-9 -54 -22 -92 -49 -96 -68 -130 -170 -137 -415 -2 -57 -7 -107 -12 -112 -23
-23 -338 -38 -377 -18 -12 6 -28 14 -36 18 -19 8 -21 38 -23 275 -3 416 29
651 90 669 54 16 156 27 301 31 73 2 135 6 137 7 2 3 788 1 922 -2z m1594
-673 c98 -2 181 -6 184 -10 4 -3 14 -3 23 1 9 5 27 7 41 6 14 -1 93 -5 175 -9
166 -7 306 -17 347 -24 20 -3 41 -70 41 -131 0 -63 -11 -161 -19 -169 -4 -4
-343 -4 -1481 3 -233 1 -426 5 -429 9 -4 3 -14 2 -23 -2 -9 -5 -35 -6 -58 -2
-23 5 -47 5 -54 0 -7 -4 -17 -6 -21 -3 -4 3 -153 7 -330 9 -319 4 -604 12
-643 19 -19 3 -20 11 -19 102 1 102 14 163 40 184 10 9 86 14 247 17 127 3
233 6 234 7 3 3 1548 -3 1745 -7z m-3857 -606 c17 -1 53 -1 80 0 28 0 208 -2
400 -6 495 -10 589 -12 865 -20 135 -3 313 -8 395 -10 139 -4 353 -9 745 -20
85 -2 261 -7 390 -10 472 -12 510 -14 520 -20 5 -3 10 -1 10 5 0 6 4 8 10 5 5
-3 94 -8 197 -10 182 -4 374 -9 763 -20 102 -3 286 -7 409 -10 123 -2 226 -6
228 -9 3 -3 15 -1 28 4 13 5 26 6 29 3 4 -4 104 -8 224 -9 119 -2 462 -6 762
-9 300 -3 597 -8 660 -10 389 -13 590 -38 590 -73 0 -4 7 -38 15 -77 8 -38 17
-97 20 -130 3 -33 8 -73 10 -90 2 -16 6 -64 9 -105 4 -41 9 -106 12 -145 3
-38 7 -95 9 -125 1 -30 6 -102 9 -160 16 -250 25 -423 31 -590 3 -63 7 -171
10 -240 8 -216 15 -437 21 -680 3 -129 6 -248 7 -265 1 -16 -1 -40 -5 -53 -4
-12 -4 -22 0 -22 7 0 6 -326 -2 -545 -2 -66 -4 -140 -5 -165 l-1 -45 -31 35
c-17 19 -48 54 -68 78 l-37 42 -41 -30 c-43 -32 -60 -61 -47 -82 4 -7 37 -58
72 -112 35 -55 89 -144 120 -199 49 -86 56 -106 55 -151 -2 -93 -37 -211 -63
-211 -8 0 -47 47 -86 105 -40 58 -76 110 -81 115 -5 6 -12 17 -16 25 -14 33
-203 294 -220 304 -23 14 -85 -18 -106 -55 -19 -34 -11 -58 46 -153 26 -43 54
-89 61 -102 7 -13 17 -24 22 -24 4 0 13 -13 19 -30 5 -17 15 -30 20 -30 6 0
11 -4 11 -9 0 -5 20 -40 45 -78 25 -37 45 -72 45 -76 0 -5 -42 -6 -92 -3 -51
2 -112 5 -134 5 -40 1 -42 3 -59 49 -10 26 -25 63 -34 82 -8 19 -14 37 -14 40
0 3 -25 54 -56 115 -44 87 -61 111 -81 115 -39 9 -68 0 -100 -30 l-30 -28 19
-50 c11 -28 50 -109 86 -181 58 -113 74 -164 46 -146 -5 2 -39 7 -77 10 -112
8 -116 10 -144 68 -39 83 -113 197 -132 203 -21 6 -67 -17 -113 -57 l-34 -30
45 -84 c25 -46 41 -85 37 -87 -4 -3 -50 -4 -102 -4 l-94 1 -21 40 c-69 132
-120 217 -141 233 -17 14 -37 18 -70 16 -25 -2 -50 -6 -55 -9 -5 -3 1 -23 14
-43 45 -71 74 -138 81 -183 7 -44 6 -47 -20 -53 -22 -6 -436 -20 -482 -17 -17
1 24 2 -488 -4 -392 -4 -2607 -12 -4955 -18 -641 -1 -976 4 -1045 17 -11 2
-45 7 -75 11 -65 9 -106 28 -114 53 -6 18 -14 129 -22 292 -5 117 -5 1501 0
1845 8 468 23 1173 30 1425 14 425 20 532 32 552 24 38 229 90 444 113 136 14
175 17 240 21 41 2 126 6 188 8 63 3 115 6 117 8 3 3 156 2 240 -1z"/>
<path d="M3150 7768 c-30 -5 -61 -14 -68 -21 -26 -27 -39 -143 -47 -439 l-5
-178 24 -15 c25 -16 41 -19 118 -16 44 1 47 3 54 34 5 17 9 120 10 227 1 107
2 198 3 201 2 12 46 19 151 25 58 3 121 7 140 9 19 2 40 4 47 4 45 3 33 127
-15 159 -21 13 -54 17 -191 17 -91 1 -191 -2 -221 -7z"/>
<path d="M1180 6310 c-17 -11 -24 -126 -24 -414 0 -248 1 -269 18 -282 30 -21
154 -6 187 23 14 11 16 35 13 161 -3 159 -10 258 -19 272 -7 12 22 40 43 41 9
0 24 2 32 4 46 11 68 14 143 20 45 4 88 13 95 20 19 17 23 132 6 146 -15 12
-476 20 -494 9z"/>
<path d="M4515 5902 c-2 -2 -38 -5 -81 -7 -112 -6 -179 -14 -211 -26 -15 -6
-29 -10 -30 -10 -25 7 -33 -14 -41 -114 -8 -93 -9 -466 -1 -510 7 -37 34 -52
112 -60 32 -4 68 -8 80 -11 136 -27 1396 -24 1957 5 35 2 50 13 55 42 3 13 7
35 10 48 20 102 25 359 9 451 -18 100 -19 101 -99 116 -11 1 -33 6 -50 8 -64
12 -171 23 -300 31 -44 3 -114 8 -155 11 -75 5 -109 6 -415 19 -167 8 -834 13
-840 7z"/>
<path d="M2497 5764 c-1 -1 -32 -5 -69 -8 -64 -7 -86 -10 -153 -21 -75 -13
-169 -37 -245 -63 -8 -3 -18 -4 -22 -4 -5 1 -8 -2 -8 -8 0 -5 -7 -10 -15 -10
-8 0 -56 -22 -107 -48 -307 -159 -522 -422 -655 -797 -31 -88 -67 -219 -78
-285 -8 -50 -22 -121 -31 -160 -10 -43 -13 -373 -4 -420 4 -25 11 -61 14 -80
30 -194 131 -419 254 -563 80 -94 212 -210 297 -260 42 -25 252 -128 267 -131
7 -2 20 -6 28 -9 65 -26 256 -72 340 -83 19 -2 55 -7 80 -10 25 -4 118 -8 206
-9 145 -2 219 4 364 31 57 10 202 54 250 76 25 11 50 21 56 22 6 1 48 23 95
49 169 95 285 198 417 372 53 69 143 255 168 345 2 8 10 39 18 68 9 30 18 72
21 95 3 23 8 49 10 57 14 52 21 300 11 400 -6 61 -18 164 -22 185 -2 11 -6 31
-9 45 -19 98 -57 249 -73 285 -15 34 -34 89 -35 103 0 6 -4 12 -9 12 -4 0 -8
6 -8 13 0 30 -130 265 -152 275 -5 2 -8 10 -8 18 0 8 -7 17 -15 20 -8 4 -15
10 -15 14 0 21 -163 185 -226 228 -22 14 -41 29 -44 32 -7 9 -133 80 -190 107
-110 51 -272 94 -415 109 -51 6 -283 12 -288 8z m264 -226 c10 -13 33 -44 50
-71 29 -44 30 -49 16 -70 -8 -13 -34 -39 -57 -58 -23 -19 -47 -39 -54 -45 -27
-25 -45 -23 -70 11 -14 18 -31 39 -38 47 -7 7 -22 29 -32 47 l-19 34 29 25
c31 25 144 102 151 102 3 0 13 -10 24 -22z m-503 -37 c12 -6 22 -15 23 -19 0
-4 3 -19 5 -33 5 -28 -31 -74 -161 -204 -79 -80 -122 -115 -140 -115 -15 0
-87 73 -141 143 l-38 48 30 25 c32 26 80 55 90 53 4 0 10 3 13 8 6 10 117 63
161 78 3 1 12 4 20 8 69 26 100 28 138 8z m940 -93 c81 -43 150 -97 158 -125
4 -16 -4 -32 -33 -63 -44 -48 -66 -62 -85 -55 -17 7 -77 109 -112 193 -39 93
-27 101 72 50z m-742 -160 c48 -36 92 -87 98 -114 7 -25 -3 -48 -39 -92 -162
-199 -239 -282 -262 -282 -12 0 -71 58 -140 139 -30 35 -29 45 11 89 19 20 44
48 56 62 83 96 218 220 240 220 4 0 20 -10 36 -22z m514 -24 c40 -27 129 -116
151 -151 13 -20 17 -38 12 -47 -26 -45 -130 -176 -140 -176 -14 0 -89 83 -152
170 l-49 68 33 49 c35 53 88 103 109 103 6 0 23 -7 36 -16z m-1214 -106 c41
-44 71 -89 89 -133 l15 -35 -90 -89 c-137 -135 -147 -143 -172 -128 -24 13
-80 60 -110 92 -23 24 -17 59 19 125 57 104 152 200 199 200 11 0 34 -15 50
-32z m1785 -35 c40 -42 69 -95 69 -124 0 -29 -59 -112 -92 -130 -19 -10 -25
-7 -50 22 -15 19 -45 67 -65 107 l-38 72 35 33 c79 74 90 75 141 20z m-812
-205 c22 -29 57 -82 79 -118 38 -62 39 -66 25 -93 -36 -71 -229 -307 -250
-307 -9 0 -92 87 -161 169 -39 46 -59 78 -54 87 28 50 286 314 307 314 8 0 32
-24 54 -52z m583 -95 c14 -27 31 -65 37 -86 11 -33 10 -41 -8 -71 -12 -18 -42
-53 -68 -77 l-46 -43 -30 35 c-47 55 -97 132 -97 150 0 27 136 139 170 139 9
0 27 -20 42 -47z m-1309 -35 c34 -38 101 -135 110 -160 3 -9 3 -18 -1 -20 -4
-2 -21 -21 -37 -44 -34 -47 -80 -99 -116 -131 l-25 -22 -25 22 c-14 12 -53 62
-87 111 l-62 89 30 37 c45 57 149 150 167 150 9 0 29 -15 46 -32z m1781 -89
c51 -128 54 -150 18 -190 -20 -23 -33 -30 -48 -25 -20 7 -83 95 -130 184 l-28
53 44 40 c57 52 81 62 97 42 6 -8 28 -55 47 -104z m-2324 -55 c12 -39 11 -43
-26 -104 -60 -97 -67 -93 -63 38 4 90 8 114 23 131 l19 20 17 -22 c10 -12 23
-41 30 -63z m1601 -201 c16 -23 29 -48 29 -56 0 -14 -39 -73 -83 -123 -40 -47
-176 -184 -183 -184 -10 0 -39 35 -91 112 l-47 68 40 42 c21 24 43 44 47 46 4
2 13 10 20 18 7 8 49 46 95 84 l84 70 30 -17 c16 -10 43 -37 59 -60z m446 30
c58 -71 86 -113 74 -113 -6 0 -11 -5 -11 -11 0 -18 -70 -109 -84 -109 -13 0
-50 42 -109 127 l-36 52 46 38 c25 21 51 43 57 50 17 19 21 16 63 -34z m-1797
-59 c25 -29 57 -77 73 -105 l27 -52 -20 -19 c-11 -10 -20 -22 -20 -27 0 -14
-170 -180 -191 -186 -14 -5 -26 -1 -38 12 -22 24 -104 149 -125 191 l-17 33
38 47 c68 84 97 114 142 147 54 40 67 36 131 -41z m556 8 c26 -26 80 -87 132
-152 l20 -25 -51 -60 c-81 -94 -158 -167 -172 -161 -15 6 -78 95 -124 178
l-33 58 21 28 c23 33 159 162 170 162 5 0 21 -13 37 -28z m1029 -249 c43 -40
55 -58 61 -87 6 -34 -26 -72 -180 -211 -42 -38 -90 -78 -106 -88 l-28 -18 -48
73 c-71 109 -74 121 -37 155 78 72 191 166 237 197 42 28 51 27 101 -21z m480
-99 c39 -80 38 -91 -8 -141 -29 -33 -41 -29 -75 25 -71 112 -74 120 -55 152
21 36 72 63 90 48 7 -5 29 -43 48 -84z m-1804 -32 c72 -78 86 -98 99 -133 11
-30 10 -38 -10 -72 -12 -20 -26 -37 -31 -37 -5 0 -9 -5 -9 -11 0 -15 -99 -117
-121 -124 -19 -6 -55 28 -141 135 -77 95 -77 88 0 165 72 73 138 125 157 125
7 0 32 -22 56 -48z m597 28 c11 -11 34 -39 51 -63 l30 -44 -27 -44 c-31 -52
-117 -175 -142 -201 -16 -18 -50 -16 -50 2 0 5 -6 15 -13 22 -16 16 -97 126
-97 131 0 2 10 15 23 29 12 13 40 44 62 69 42 46 124 119 135 119 3 0 16 -9
28 -20z m-1175 -116 c41 -47 56 -90 46 -128 -9 -30 -36 -66 -50 -66 -5 0 -22
24 -39 53 -26 45 -29 59 -25 106 8 85 19 90 68 35z m2117 -74 c53 -54 73 -95
63 -125 -10 -30 -138 -179 -216 -251 l-59 -55 -25 23 c-34 32 -133 162 -133
175 0 5 27 34 61 64 34 30 66 59 73 64 6 6 38 32 71 58 33 26 65 51 70 55 11
9 48 31 53 32 1 0 21 -18 42 -40z m-665 -173 c40 -56 38 -92 -8 -158 -54 -79
-114 -140 -131 -133 -30 11 -116 136 -116 167 0 24 59 92 125 143 67 52 80 51
130 -19z m-607 -40 c41 -43 82 -106 82 -126 0 -19 -72 -118 -132 -180 l-42
-44 -23 29 c-53 65 -99 134 -107 160 -13 42 134 207 175 197 9 -3 30 -19 47
-36z m-590 -19 c72 -73 102 -118 102 -147 0 -31 -68 -123 -92 -127 -15 -2 -88
68 -166 161 -24 27 -24 75 -2 75 6 0 10 5 10 12 0 14 71 78 86 78 6 0 34 -24
62 -52z m2050 -122 c-11 -21 -45 -58 -186 -203 -69 -71 -74 -74 -87 -57 -8 11
-15 23 -15 28 0 4 29 38 64 75 35 36 92 96 126 133 57 60 65 65 86 56 20 -9
22 -14 12 -32z m-613 -128 c25 -28 53 -65 61 -81 15 -27 14 -31 -11 -68 -32
-49 -45 -65 -118 -142 l-58 -61 -32 39 c-18 22 -39 47 -47 55 -8 9 -32 36 -52
62 l-37 46 28 38 c15 22 49 58 74 82 26 23 47 46 47 50 0 4 15 17 32 29 38 27
49 22 113 -49z m-580 -61 c38 -53 65 -103 65 -120 0 -29 -151 -164 -170 -152
-22 13 -92 129 -92 151 0 43 108 164 147 164 12 0 32 -17 50 -43z m-515 -84
c0 -7 3 -13 8 -13 7 0 11 -6 42 -64 13 -27 13 -30 -9 -47 -23 -19 -24 -19 -95
18 -119 61 -119 61 -68 161 l27 52 47 -47 c26 -27 47 -54 48 -60z"/>
<path d="M7840 5760 c0 -3 -17 -5 -38 -6 -41 0 -148 -13 -172 -19 -8 -2 -26
-6 -40 -9 -86 -14 -201 -52 -307 -102 -82 -38 -219 -123 -264 -164 -93 -86
-141 -135 -177 -181 -23 -30 -46 -59 -51 -65 -48 -58 -179 -305 -187 -354 -2
-8 -10 -30 -18 -50 -16 -36 -65 -206 -72 -250 -2 -14 -9 -45 -14 -70 -27 -123
-32 -180 -34 -350 -2 -258 25 -394 119 -597 46 -98 99 -184 145 -233 15 -16
26 -30 24 -30 -3 0 23 -27 58 -61 112 -108 104 -101 243 -192 155 -101 436
-192 690 -223 75 -9 397 -10 450 0 22 3 56 9 75 12 71 12 85 15 105 21 11 4
22 7 25 8 19 4 129 37 145 44 268 116 430 238 577 435 52 69 154 257 162 296
2 8 6 22 9 30 15 38 48 156 52 189 3 20 7 47 10 60 29 143 22 427 -15 616 -5
28 -12 61 -14 75 -25 133 -76 287 -136 416 -34 73 -125 231 -139 244 -3 3 -24
27 -45 54 -60 74 -143 154 -224 213 -87 65 -253 153 -317 168 -5 1 -30 9 -55
18 -59 20 -176 43 -265 53 -80 8 -305 12 -305 4z m293 -240 c18 -22 42 -56 53
-76 l19 -36 -60 -55 c-33 -30 -72 -61 -86 -69 -26 -13 -28 -12 -73 45 -66 85
-71 104 -36 133 16 12 37 29 47 36 10 7 34 23 53 37 19 13 38 24 42 25 3 0 22
-18 41 -40z m-503 -25 c29 -27 23 -69 -17 -116 -71 -83 -230 -237 -253 -244
-16 -5 -29 0 -52 22 -58 53 -137 155 -131 169 5 15 107 81 163 106 19 9 52 23
72 33 111 51 183 61 218 30z m960 -104 c75 -45 130 -96 130 -120 0 -21 -93
-111 -114 -111 -9 0 -16 4 -16 8 0 5 -8 17 -17 28 -26 28 -96 175 -106 223 -5
21 -3 23 26 17 17 -4 61 -24 97 -45z m-776 -140 c33 -21 63 -52 91 -95 18 -27
15 -64 -8 -88 -7 -7 -28 -33 -47 -58 -19 -25 -37 -47 -40 -50 -3 -3 -16 -18
-28 -35 -41 -54 -155 -165 -169 -165 -20 0 -163 155 -163 177 1 31 297 333
327 333 3 0 20 -9 37 -19z m512 -24 c32 -18 94 -77 137 -129 39 -48 42 -70 14
-101 -7 -7 -28 -35 -47 -62 -39 -56 -66 -85 -78 -85 -13 0 -69 63 -140 157
l-62 81 44 60 c43 59 80 92 101 92 5 -1 20 -6 31 -13z m-1214 -102 c38 -38 78
-100 93 -142 l13 -38 -95 -92 c-132 -129 -140 -135 -166 -120 -12 7 -27 17
-34 24 -7 6 -23 20 -36 30 -13 10 -31 30 -41 44 -16 25 -16 29 0 70 16 39 71
127 106 169 29 34 94 80 114 80 12 0 33 -11 46 -25z m1788 -37 c0 -4 6 -13 13
-20 27 -27 64 -93 61 -111 -5 -35 -86 -137 -108 -137 -13 0 -42 32 -65 71 -8
13 -26 44 -41 69 -15 25 -26 54 -24 65 3 21 67 82 99 94 19 8 64 -14 65 -31z
m-832 -183 c12 -14 22 -30 22 -35 0 -6 3 -10 8 -10 7 0 40 -49 90 -132 l23
-36 -58 -85 c-91 -133 -173 -230 -203 -239 -15 -5 -56 33 -150 141 -90 102
-89 94 -7 185 111 121 228 236 241 236 7 0 22 -11 34 -25z m617 -149 c19 -40
35 -80 35 -88 0 -16 -45 -81 -78 -113 -52 -50 -50 -50 -88 -8 -20 21 -42 51
-51 67 -8 16 -23 38 -33 49 -17 17 -17 22 -4 41 27 43 137 126 165 126 13 0
29 -22 54 -74z m-1321 -9 c17 -18 45 -53 61 -78 17 -24 33 -45 38 -47 16 -8 5
-57 -20 -90 -48 -64 -116 -137 -137 -149 -18 -10 -25 -6 -58 30 -21 23 -38 47
-38 54 0 6 -4 13 -8 15 -15 6 -72 96 -72 113 0 22 165 185 186 185 9 0 31 -15
48 -33z m1755 -29 c26 -56 41 -93 46 -108 18 -59 25 -94 20 -109 -8 -28 -52
-64 -69 -58 -18 7 -106 126 -106 144 0 7 -4 13 -8 13 -13 0 -42 72 -34 86 9
16 104 94 115 94 4 0 21 -28 36 -62z m-2309 -82 c11 -23 20 -50 20 -58 0 -15
-28 -76 -40 -88 -3 -3 -14 -18 -24 -34 -29 -45 -39 -20 -34 86 7 146 36 180
78 94z m1585 -201 c51 -52 62 -82 43 -118 -39 -72 -239 -280 -261 -271 -8 3
-41 43 -73 90 l-58 84 25 27 c13 14 42 42 63 62 22 20 53 48 68 64 16 15 33
27 38 27 4 0 10 3 12 8 4 11 81 72 90 72 4 0 28 -20 53 -45z m513 -50 c17 -21
32 -44 32 -51 0 -29 -72 -134 -92 -134 -13 0 -54 46 -103 117 l-43 61 61 52
61 52 26 -29 c14 -16 40 -46 58 -68z m-1845 -3 c10 -12 24 -28 30 -35 30 -32
58 -79 63 -107 7 -34 -23 -77 -133 -186 -75 -76 -99 -86 -125 -53 -29 36 -103
150 -121 186 -17 31 -17 32 20 80 52 69 135 153 150 153 7 0 13 4 13 9 0 5 8
11 18 14 17 4 52 -20 85 -61z m588 -25 c26 -29 66 -76 88 -103 l40 -50 -52
-59 c-79 -89 -155 -165 -165 -165 -6 0 -24 19 -41 43 -17 23 -35 47 -41 54 -5
7 -10 16 -10 21 0 5 -9 21 -20 35 -11 14 -27 42 -36 62 l-15 36 91 90 c49 49
95 89 101 89 7 0 33 -24 60 -53z m1006 -224 c68 -65 75 -98 31 -149 -42 -49
-95 -100 -180 -175 -106 -92 -98 -92 -158 3 -61 94 -67 110 -47 129 84 83 278
239 297 239 4 0 30 -21 57 -47z m477 -94 c20 -40 36 -77 36 -83 0 -17 -60 -86
-75 -86 -13 0 -54 59 -93 134 -24 45 -17 69 30 103 42 30 59 19 102 -68z
m-1811 -26 c76 -80 117 -142 117 -178 0 -32 -162 -215 -190 -215 -12 0 -74 67
-144 154 -42 54 -53 74 -46 87 23 43 189 189 215 189 7 0 29 -17 48 -37z m622
2 c6 -5 23 -30 38 -53 l28 -44 -72 -106 c-78 -113 -108 -152 -120 -152 -4 0
-28 26 -54 58 -25 31 -49 62 -54 68 -34 43 -33 49 32 120 34 38 68 73 75 77 7
5 20 16 30 26 40 42 59 43 97 6z m-1193 -98 c33 -32 60 -94 52 -119 -4 -13 -7
-26 -6 -30 1 -5 -2 -8 -8 -8 -5 0 -10 -6 -10 -14 0 -21 -28 -27 -45 -9 -9 8
-25 34 -36 57 -19 41 -20 74 -4 139 8 29 12 28 57 -16z m2172 -146 c10 -18 15
-43 12 -55 -6 -25 -160 -201 -231 -265 l-49 -43 -31 34 c-91 103 -126 153
-119 172 3 8 31 36 62 63 30 26 60 53 66 58 31 29 148 117 173 130 27 15 29
14 64 -23 20 -20 44 -52 53 -71z m-720 -103 c33 -48 39 -83 21 -117 -20 -39
-110 -150 -136 -169 -20 -14 -23 -12 -55 24 -44 50 -84 117 -84 141 0 22 87
112 149 153 39 26 45 28 63 16 11 -8 30 -29 42 -48z m-604 -44 c28 -26 50 -52
50 -59 0 -7 7 -18 15 -25 25 -21 17 -49 -29 -114 -42 -57 -121 -146 -130 -146
-2 0 -21 24 -42 53 -21 28 -41 54 -44 57 -3 3 -16 24 -28 48 l-24 43 27 42
c28 43 132 147 147 147 5 0 31 -21 58 -46z m-588 -16 c27 -29 63 -72 78 -96
24 -37 27 -48 18 -73 -5 -16 -14 -29 -19 -29 -5 0 -9 -6 -9 -14 0 -8 -14 -26
-31 -40 -38 -33 -47 -29 -130 65 -35 40 -70 78 -76 85 -24 24 -16 42 47 109
55 58 59 58 122 -7z m2058 -109 c0 -9 -75 -91 -198 -217 -69 -71 -73 -74 -87
-56 -19 25 -19 29 8 57 215 233 229 246 253 235 13 -6 24 -15 24 -19z m-625
-141 c26 -29 54 -67 63 -85 14 -30 14 -33 -16 -73 -61 -83 -154 -180 -173
-180 -10 0 -19 3 -19 8 0 7 -29 41 -95 114 -66 73 -68 66 49 184 119 121 112
120 191 32z m-582 -60 c19 -24 44 -62 56 -85 l21 -42 -49 -49 c-27 -27 -65
-62 -85 -77 l-37 -28 -21 23 c-37 40 -87 131 -81 148 9 26 93 126 116 139 34
19 43 16 80 -29z m-561 -24 c40 -44 108 -145 108 -161 0 -6 -10 -19 -21 -27
-20 -14 -27 -12 -83 16 -80 40 -115 65 -112 81 8 44 51 127 67 127 5 0 23 -16
41 -36z"/>
<path d="M4552 4797 c-22 -4 -45 -14 -51 -21 -15 -18 -20 -224 -6 -242 5 -8
30 -16 55 -19 119 -12 1134 -23 1353 -15 80 4 88 13 88 93 0 73 -19 145 -41
152 -10 3 -37 8 -61 10 -24 3 -66 8 -94 11 -27 3 -81 7 -120 10 -38 2 -101 6
-140 9 -245 17 -915 26 -983 12z"/>
<path d="M4668 4053 c-16 -3 -28 -7 -29 -11 0 -4 -2 -14 -4 -22 -2 -8 -6 -26
-10 -40 -3 -14 -8 -62 -12 -106 l-6 -82 39 -6 c126 -20 379 -29 844 -30 462
-1 502 1 542 21 46 23 48 81 6 169 -22 44 -40 54 -113 59 -16 2 -59 5 -95 9
-109 10 -170 15 -275 21 -55 3 -138 8 -185 11 -106 7 -665 12 -702 7z"/>
<path d="M5177 3453 c-2 -1 -39 -3 -84 -4 -45 -1 -86 -5 -93 -9 -15 -9 -23
-138 -23 -395 0 -236 3 -269 30 -280 64 -26 561 -24 628 1 35 14 48 77 48 229
-1 97 -10 274 -17 315 -3 14 -7 43 -11 65 -3 22 -11 46 -18 52 -7 7 -46 15
-87 19 -73 6 -369 12 -373 7z m264 -219 c22 -5 30 -16 46 -67 11 -34 21 -88
22 -119 3 -74 -14 -91 -105 -108 -69 -14 -227 -20 -238 -9 -3 3 -6 21 -6 40 0
18 -1 48 -1 64 -1 17 -1 37 0 45 0 8 2 40 4 70 2 30 5 60 5 67 3 23 57 33 152
28 52 -3 107 -7 121 -11z"/>
<path d="M4216 3423 c-1 -1 -22 -5 -47 -7 -59 -6 -79 -15 -80 -35 -1 -9 -4
-38 -6 -66 -2 -27 -6 -179 -8 -337 -4 -309 -4 -308 48 -314 104 -13 508 3 536
20 12 8 15 86 16 383 0 263 -2 293 -18 310 -9 11 -23 20 -30 21 -6 0 -25 3
-42 6 -68 11 -361 26 -369 19z m199 -251 l50 -7 -3 -100 c-1 -55 -4 -109 -6
-120 -3 -11 -5 -30 -5 -43 -1 -28 -34 -42 -102 -44 -60 -1 -74 10 -84 65 -11
67 -17 189 -10 225 6 31 7 32 58 31 29 0 75 -4 102 -7z"/>
<path d="M5990 3419 c-50 -10 -69 -28 -65 -65 1 -13 -1 -24 -4 -24 -9 0 -7
-547 2 -556 4 -5 45 -9 90 -11 45 -1 93 -3 107 -4 41 -2 423 11 427 15 4 4 3
489 -1 536 -2 19 -4 45 -5 57 -1 23 -40 35 -151 49 -86 10 -350 12 -400 3z
m280 -192 c72 -18 67 -11 70 -105 2 -92 2 -146 1 -174 -1 -16 -13 -17 -111
-15 -70 1 -114 7 -122 15 -18 18 -12 251 7 282 5 8 123 5 155 -3z"/>
</g>
</svg>
