<?xml version="1.0" encoding="UTF-8" standalone="no"?>
<svg
   xmlns="http://www.w3.org/2000/svg"
   viewBox="0 0 64.003372 44"
   version="1.1"
   width="64.003372"
   height="44">
  <path d="m 61.576126,25.323 c -0.378,-6.442 -0.672,-12.968 -1.554,-13.515 -0.882,-0.547 -9.867,-0.42 -10.245,-0.295 -0.378,0.126 0.084,-3.663 -0.042,-5.18 -0.126,-1.515 -0.504,-2.946 -2.603,-3.03 -2.1,-0.084 -21.708,-0.968 -24.815,-1.01 -3.107,-0.042 -4.997,0.926 -5.878,1.558 -0.883,0.633 -0.547,6.822 -0.547,6.822 0,0 -5.626,-0.295 -8.6499995,-0.253 -3.022,0.04 -4.66,2.146 -4.66,3.45 0,1.306 -0.336,20.59 -0.294,23.368 0.04,2.78 1.175,4.084 1.805,4.337 0.63,0.253 7.7259995,0.084 17.8869995,0 10.16,-0.084 33.758,-0.126 35.815,-0.168 2.057,-0.042 3.317,-0.968 3.485,-2.105 0.168,-1.137 0.672,-7.537 0.294,-13.98 z m -43.122,-20.546 c 0.63,-0.505 9.573,-0.295 15.325,-0.126 5.75,0.17 13.14,0.464 13.645,0.97 0.504,0.504 0.63,5.683 0.336,5.725 -0.293,0.042 -3.274,0.168 -3.4,-0.126 -0.126,-0.296 0.252,-3.453 -0.336,-3.917 -0.588,-0.463 -18.18,-0.632 -19.692,-0.59 -1.512,0.043 -3.107,0.254 -3.4,1.727 -0.295,1.474 -0.043,2.147 -0.253,2.23 -0.21,0.085 -2.436,0.338 -2.646,-0.125 -0.062,-0.138 -0.21,-5.263 0.42,-5.768 z m 23.513,6.063 c 0,0 -18.35,-0.042 -19.146,-0.253 0,0 -0.083,-1.6 0.295,-1.81 0.378,-0.21 18.223,-0.168 18.726,0.168 0.505,0.337 0.127,1.895 0.127,1.895 z m 17.215,28.504 c -0.168,-0.042 -2.35,-3.537 -2.52,-3.537 -0.17,0 -0.797,0.168 -0.713,0.674 0.084,0.506 1.93,2.906 1.762,2.906 -0.168,0 -1.68,-0.084 -1.68,-0.084 0,0 -0.924,-2.358 -1.176,-2.484 -0.252,-0.126 -0.882,0.084 -0.882,0.42 0,0.338 1.176,2.232 1.008,2.275 -0.168,0.042 -1.302,-0.126 -1.302,-0.126 0,0 -0.798,-1.642 -1.008,-1.642 -0.21,0 -0.966,0.463 -0.882,0.632 0.084,0.168 0.546,1.01 0.546,1.01 0,0 -1.218,0.126 -1.302,0 -0.084,-0.126 -0.84,-1.684 -1.05,-1.768 -0.21,-0.085 -0.798,0.04 -0.798,0.04 0,0 0.966,1.475 0.63,1.727 -0.336,0.253 -22.21,0.168 -28.97,0.21 -6.76,0.043 -15.3259995,0.296 -15.8299995,-0.336 -0.504,-0.63 -0.042,-24.798 0.168,-25.766 0.102,-0.47 2.687,-0.926 6.6339995,-1.01 3.947,-0.085 31.323,0.84 36.99,0.84 5.67,0 9.07,0.127 9.658,0.422 0.588,0.295 1.008,12.84 1.05,16.504 0.042,3.663 -0.084,5.094 -0.084,5.094 l -0.84,-0.968 c 0,0 -0.756,0.463 -0.588,0.674 0.168,0.21 1.512,2.23 1.596,2.695 0.086,0.462 -0.25,1.64 -0.418,1.6 z m -39.09,-29.724 c 0.22,0 0.126,-2.56 0.126,-2.843 0,-0.284 1.89,-0.158 2.173,-0.284 0.284,-0.126 0.127,-0.726 -0.03,-0.947 -0.158,-0.22 -2.92,-0.245 -3.15,0.063 -0.19,0.252 -0.315,3.504 -0.252,3.82 0.063,0.315 0.913,0.19 1.134,0.19 z m 17.572,20.808 c 0.63,-0.284 0,-1.168 -0.063,-1.358 -0.063,-0.19 -8.552,-0.692 -8.627,-0.316 -0.063,0.316 -0.252,1.358 -0.126,1.547 0.125,0.19 8.187,0.412 8.817,0.128 z m -6.456,2.084 c -0.126,0.22 -0.157,3.98 -0.032,4.168 0.126,0.19 3.684,0.253 4.125,0 0.442,-0.253 0.127,-3.884 -0.03,-4.105 -0.157,-0.22 -3.978,-0.21 -4.062,-0.063 z m 3.086,2.97 c -0.41,0.22 -2.047,0.378 -2.047,0.157 0,-0.221 -0.032,-1.61 0.063,-1.77 0.205,-0.34 1.795,-0.125 1.858,-0.03 0.063,0.093 0.536,1.42 0.126,1.64 z m 5.354,-13.832 c 0.19,-0.158 0.472,-3.38 0.03,-3.916 -0.44,-0.537 -13.288,-0.98 -13.634,-0.284 -0.157,0.316 -0.252,3.347 -0.063,4.01 0.19,0.663 13.48,0.348 13.668,0.19 z m -2.33,4.2 c 0.25,-0.096 0.093,-1.17 0,-1.454 -0.095,-0.284 -8.926,-0.646 -9.196,-0.284 -0.095,0.126 -0.126,1.42 -0.032,1.61 0.095,0.19 8.975,0.222 9.227,0.127 z m -22.938,-7.727 c -2.94,0.463 -6.3819995,2.4 -7.3479995,8.252 -0.966,5.852 2.56,9.684 8.3549995,10.147 5.795,0.463 10.37,-3.326 9.614,-9.852 -0.755,-6.526 -4.976,-9.436 -10.622,-8.546 z m 7.473,3.84 c 0.19,0.064 0.882,0.948 0.724,1.17 -0.158,0.22 -0.568,0.883 -0.757,0.725 -0.19,-0.16 -0.82,-1.17 -0.756,-1.296 0.052,-0.1 0.6,-0.662 0.788,-0.6 z m -10.58,5.685 c -0.095,0.22 -1.3539995,1.64 -1.5429995,1.483 -0.19,-0.158 -0.976,-1.358 -0.976,-1.484 0,-0.135 1.228,-1.61 1.5119995,-1.422 0.282,0.19 1.1,1.2 1.007,1.42 z m -0.252,-2.337 c -0.055,-0.083 1.04,-1.263 1.26,-1.2 0.22,0.063 0.976,1.168 0.945,1.263 -0.03,0.095 -0.976,1.326 -1.165,1.295 -0.19,-0.03 -0.977,-1.263 -1.04,-1.357 z m 0.979,3.349 c 0.156,0.063 1.133,1.168 1.007,1.42 -0.126,0.254 -1.04,1.39 -1.228,1.296 -0.19,-0.095 -1.166,-1.295 -1.198,-1.42 -0.04,-0.158 1.26,-1.36 1.417,-1.296 z m 0.755,-1.074 c 0.023,-0.092 1.07,-1.168 1.197,-1.168 0.126,0 1.165,1.295 1.165,1.295 0,0 -1.228,1.484 -1.386,1.42 -0.157,-0.063 -1.007,-1.42 -0.975,-1.547 z m 3.212,1.137 c 0.252,0.19 0.598,0.79 0.598,0.79 0,0 -1.07,1.64 -1.197,1.64 -0.127,0 -0.787,-1.01 -0.882,-1.104 0,0 1.23,-1.516 1.48,-1.327 z m 0.157,-1.99 c -0.22,-0.094 -1.354,-1.452 -1.386,-1.546 0,0 1.826,-2.116 2.015,-2.02 0.19,0.094 1.07,1.42 1.04,1.546 -0.03,0.126 -1.448,2.115 -1.67,2.02 z m 2.488,-0.726 c 0.126,0 0.756,0.568 0.693,0.884 -0.063,0.316 -1.543,1.864 -1.67,1.864 -0.125,0 -0.85,-1.137 -0.85,-1.137 0.19,-0.283 1.7,-1.61 1.827,-1.61 z m 1.606,1.863 c 0.094,0.032 0.945,0.632 0.756,1.01 -0.19,0.38 -1.858,1.864 -1.952,1.8 -0.094,-0.062 -0.756,-1.167 -0.756,-1.167 0.062,-0.19 1.857,-1.674 1.952,-1.643 z m -0.882,-3.157 c -0.058,-0.116 0.945,-0.98 1.134,-0.916 0.19,0.063 0.567,0.98 0.535,1.105 -0.032,0.126 -0.693,0.947 -0.85,0.884 -0.158,-0.063 -0.756,-0.947 -0.82,-1.073 z m 1.543,1.926 0.786,-0.664 0.756,0.947 c 0,0 -0.472,0.853 -0.63,0.853 -0.157,0 -0.913,-1.137 -0.913,-1.137 z m -1.48,-6.632 c 0.202,-0.153 1.825,0.853 1.605,1.105 -0.22,0.253 -0.63,0.79 -0.82,0.6 -0.188,-0.19 -0.912,-1.61 -0.786,-1.705 z m -0.946,1.263 c 0.378,0.19 1.26,1.106 1.165,1.264 -0.096,0.158 -0.788,1.2 -0.946,1.168 -0.158,-0.032 -1.228,-1.484 -1.228,-1.484 0,0 0.63,-1.137 1.008,-0.947 z m -1.353,-2.02 c 0.094,0 0.66,0.79 0.66,0.916 0,0.126 -0.975,1.01 -1.1,0.853 -0.127,-0.16 -0.662,-0.822 -0.662,-0.948 0,-0.142 1.008,-0.822 1.102,-0.822 z m -1.92,1.83 c 0.314,0.16 0.975,0.76 0.786,1.075 -0.19,0.316 -1.795,2.305 -1.952,2.116 -0.157,-0.188 -1.04,-1.04 -0.976,-1.167 0,0 1.826,-2.18 2.14,-2.022 z m -1.344,-1.567 c 0.462,0 0.504,0.463 0.462,0.59 -0.042,0.125 -1.722,1.978 -1.93,1.85 -0.21,-0.125 -1.01,-1.052 -1.05,-1.178 -0.087,-0.255 2.056,-1.262 2.518,-1.262 z m -3.254,2.295 c 0.373,-0.172 1.134,1.2 1.008,1.295 -0.126,0.095 -1.386,1.42 -1.48,1.39 -0.094,-0.033 -0.9129995,-0.57 -0.9129995,-0.854 0,-0.285 0.63,-1.485 1.3849995,-1.832 z m -1.8269995,2.905 c 0.13,-0.13 0.535,0.632 0.41,0.82 -0.125,0.188 -0.473,0.885 -0.568,0.79 -0.094,-0.095 -0.094,-1.358 0.158,-1.61 z m -0.126,6 c -0.127,-0.127 -0.284,-0.443 -0.38,-0.633 0,0 0.033,-0.79 0.158,-0.79 0.125,0 0.693,0.57 0.63,0.917 -0.062,0.347 -0.283,0.632 -0.41,0.505 z m 1.6679995,2.462 c -0.19,-0.095 -1.0399995,-1.074 -1.1339995,-1.2 -0.08,-0.107 0.63,-1.01 0.8499995,-0.82 0.22,0.188 1.04,1.01 0.945,1.262 -0.095,0.253 -0.473,0.853 -0.662,0.758 z m 2.205,1.61 c -0.095,-0.03 -0.945,-0.44 -1.04,-0.6 -0.093,-0.157 0.316,-0.788 0.347,-0.883 0.072,-0.216 1.102,1.168 1.008,1.295 -0.095,0.126 -0.22,0.22 -0.315,0.19 z m 0.88,-1.294 c -0.094,-0.094 -0.755,-0.946 -0.818,-1.23 -0.035,-0.158 0.882,-1.264 1.134,-1.17 0.252,0.094 0.85,0.854 0.818,1.043 -0.03,0.19 -1.04,1.453 -1.134,1.358 z m 1.67,1.643 c -0.094,0 -0.598,-0.758 -0.66,-0.947 -0.068,-0.2 0.786,-1.2 1.007,-1.074 0.22,0.126 0.724,0.947 0.693,1.074 -0.032,0.126 -0.945,0.947 -1.04,0.947 z m 1.89,-2.18 c -0.094,-0.03 -0.787,-0.883 -0.787,-1.104 0,-0.273 1.134,-1.233 1.29,-1.138 0.158,0.095 0.63,0.632 0.536,0.947 -0.094,0.315 -0.945,1.326 -1.04,1.294 z m 1.51,2.212 c -0.062,-0.158 -1.07,-1.168 -1.007,-1.263 0.136,-0.205 1.197,-1.358 1.354,-1.326 0.157,0.032 1.04,0.947 0.945,1.168 -0.094,0.22 -1.228,1.58 -1.29,1.42 z m 2.143,-2.495 c -0.158,-0.032 -1.008,-1.2 -1.008,-1.2 0.157,-0.253 1.92,-1.737 2.078,-1.705 0.158,0.032 0.85,0.758 0.693,1.042 -0.158,0.284 -1.607,1.895 -1.764,1.863 z m 0.882,1.295 -0.19,-0.316 c 0.22,-0.222 1.607,-1.706 1.607,-1.706 0,0 0.315,0.095 0.283,0.22 -0.032,0.127 -1.7,1.8 -1.7,1.8 z m 1.857,-4.137 c -0.126,0 -0.693,-0.98 -0.693,-1.105 0,-0.16 0.41,-0.6 0.598,-0.505 0.19,0.095 0.567,0.98 0.567,1.074 0,0.094 -0.346,0.536 -0.472,0.536 z m 0.126,-3.568 c -0.156,-0.032 -1.007,-1.42 -0.975,-1.516 0,0 0.693,-0.695 0.82,-0.6 0.125,0.095 0.66,1.42 0.63,1.642 -0.033,0.22 -0.316,0.506 -0.474,0.474 z m 2.11,6.536 c -0.125,0.22 -0.156,4.2 -0.093,4.452 0.063,0.253 3.4,0.095 3.62,0 0.22,-0.095 0.19,-4.168 0.033,-4.39 -0.158,-0.22 -3.36,-0.413 -3.56,-0.062 z m 2.206,3.22 c -0.126,0.096 -0.976,0.254 -1.07,-0.03 -0.095,-0.285 -0.22,-1.675 -0.064,-1.832 0.12,-0.12 1.26,0.063 1.26,0.063 0,0 0,1.706 -0.126,1.8 z m 9.29,-3.25 c -0.127,0.22 -0.127,3.662 -0.064,3.883 0.063,0.22 3.936,0.03 3.936,0.03 0,0 0.063,-3.662 -0.094,-3.85 -0.157,-0.19 -3.57,-0.433 -3.78,-0.065 z m 1.07,2.81 c -0.095,-0.16 0,-1.61 0.063,-1.738 0.125,-0.253 1.416,0.095 1.416,0.095 l 0.032,1.737 c 0,0 -1.417,0.063 -1.512,-0.095 z m 20.374,-8.907 c -0.755,-6.526 -4.975,-9.437 -10.622,-8.547 -2.94,0.463 -6.382,2.4 -7.348,8.252 -0.966,5.852 2.56,9.684 8.355,10.147 5.795,0.463 10.37,-3.326 9.616,-9.852 z m -3.15,-4.705 c 0.19,0.063 0.883,0.947 0.725,1.168 -0.158,0.22 -0.567,0.884 -0.756,0.726 -0.19,-0.16 -0.82,-1.17 -0.757,-1.296 0.052,-0.1 0.6,-0.662 0.788,-0.6 z m -10.58,5.685 c -0.093,0.22 -1.353,1.64 -1.542,1.483 -0.19,-0.158 -0.976,-1.358 -0.976,-1.484 0,-0.135 1.228,-1.61 1.512,-1.422 0.282,0.19 1.1,1.2 1.007,1.42 z m -0.25,-2.337 c -0.056,-0.083 1.038,-1.263 1.26,-1.2 0.22,0.063 0.975,1.168 0.944,1.263 -0.032,0.095 -0.976,1.326 -1.165,1.295 -0.19,-0.03 -0.978,-1.263 -1.04,-1.357 z m 0.975,3.347 c 0.157,0.063 1.134,1.168 1.008,1.42 -0.126,0.254 -1.04,1.39 -1.228,1.296 -0.19,-0.095 -1.165,-1.295 -1.197,-1.42 -0.04,-0.158 1.26,-1.36 1.417,-1.296 z m 0.756,-1.074 c 0.024,-0.092 1.072,-1.168 1.198,-1.168 0.126,0 1.165,1.295 1.165,1.295 0,0 -1.228,1.484 -1.386,1.42 -0.158,-0.063 -1.008,-1.42 -0.976,-1.547 z m 3.213,1.137 c 0.252,0.19 0.598,0.79 0.598,0.79 0,0 -1.07,1.64 -1.196,1.64 -0.126,0 -0.787,-1.01 -0.882,-1.104 0,0 1.23,-1.516 1.48,-1.327 z m 0.157,-1.99 c -0.22,-0.094 -1.354,-1.452 -1.386,-1.546 0,0 1.826,-2.116 2.015,-2.02 0.188,0.094 1.07,1.42 1.038,1.546 -0.03,0.126 -1.447,2.115 -1.668,2.02 z m 2.488,-0.726 c 0.126,0 0.756,0.568 0.693,0.884 -0.062,0.317 -1.542,1.864 -1.668,1.864 -0.126,0 -0.85,-1.137 -0.85,-1.137 0.188,-0.283 1.7,-1.61 1.826,-1.61 z m 1.606,1.863 c 0.095,0.032 0.945,0.632 0.756,1.01 -0.19,0.38 -1.858,1.864 -1.952,1.8 -0.094,-0.062 -0.756,-1.167 -0.756,-1.167 0.062,-0.19 1.857,-1.674 1.952,-1.643 z m -0.882,-3.157 c -0.058,-0.116 0.945,-0.98 1.134,-0.916 0.19,0.063 0.567,0.98 0.535,1.105 -0.03,0.126 -0.692,0.947 -0.85,0.884 -0.157,-0.063 -0.755,-0.947 -0.818,-1.073 z m 1.543,1.926 0.787,-0.664 0.756,0.947 c 0,0 -0.472,0.853 -0.63,0.853 -0.157,0 -0.913,-1.137 -0.913,-1.137 z m -1.48,-6.632 c 0.203,-0.153 1.826,0.853 1.606,1.105 -0.22,0.253 -0.63,0.79 -0.818,0.6 -0.19,-0.19 -0.913,-1.61 -0.787,-1.705 z m -0.945,1.263 c 0.378,0.19 1.26,1.106 1.165,1.264 -0.095,0.158 -0.787,1.2 -0.945,1.168 -0.157,-0.032 -1.228,-1.484 -1.228,-1.484 0,0 0.63,-1.137 1.008,-0.947 z m -1.354,-2.02 c 0.095,0 0.66,0.79 0.66,0.916 0,0.126 -0.975,1.01 -1.1,0.853 -0.127,-0.16 -0.662,-0.822 -0.662,-0.948 0,-0.142 1.008,-0.822 1.102,-0.822 z m -1.92,1.83 c 0.314,0.16 0.975,0.76 0.786,1.075 -0.19,0.316 -1.795,2.305 -1.952,2.116 -0.158,-0.188 -1.04,-1.04 -0.976,-1.167 0,0 1.826,-2.18 2.14,-2.022 z m -1.344,-1.567 c 0.462,0 0.504,0.463 0.462,0.59 -0.042,0.125 -1.72,1.978 -1.93,1.85 -0.21,-0.125 -1.01,-1.052 -1.05,-1.178 -0.086,-0.255 2.056,-1.262 2.518,-1.262 z m -3.254,2.295 c 0.373,-0.172 1.134,1.2 1.008,1.295 -0.126,0.095 -1.386,1.42 -1.48,1.39 -0.094,-0.033 -0.913,-0.57 -0.913,-0.854 0,-0.285 0.63,-1.485 1.385,-1.832 z m -1.827,2.905 c 0.13,-0.13 0.536,0.632 0.41,0.82 -0.126,0.19 -0.472,0.885 -0.567,0.79 -0.094,-0.095 -0.094,-1.358 0.158,-1.61 z m -0.125,6 c -0.126,-0.127 -0.283,-0.443 -0.378,-0.633 0,0 0.03,-0.79 0.157,-0.79 0.126,0 0.693,0.57 0.63,0.917 -0.062,0.347 -0.283,0.632 -0.41,0.505 z m 1.67,2.462 c -0.19,-0.095 -1.04,-1.074 -1.135,-1.2 -0.08,-0.107 0.63,-1.01 0.85,-0.82 0.22,0.188 1.04,1.01 0.945,1.262 -0.094,0.253 -0.472,0.853 -0.66,0.758 z m 2.204,1.61 c -0.095,-0.03 -0.946,-0.44 -1.04,-0.6 -0.094,-0.157 0.315,-0.788 0.346,-0.883 0.072,-0.216 1.102,1.168 1.008,1.295 -0.095,0.126 -0.22,0.22 -0.315,0.19 z m 0.88,-1.294 c -0.094,-0.094 -0.756,-0.946 -0.82,-1.23 -0.034,-0.158 0.883,-1.264 1.135,-1.17 0.252,0.096 0.85,0.854 0.82,1.043 -0.032,0.19 -1.04,1.453 -1.135,1.358 z m 1.67,1.643 c -0.096,0 -0.6,-0.758 -0.662,-0.947 -0.067,-0.2 0.787,-1.2 1.008,-1.074 0.22,0.126 0.724,0.947 0.693,1.074 -0.033,0.126 -0.946,0.947 -1.04,0.947 z m 1.89,-2.18 c -0.096,-0.03 -0.788,-0.883 -0.788,-1.104 0,-0.273 1.134,-1.233 1.29,-1.138 0.158,0.095 0.63,0.632 0.536,0.947 -0.094,0.315 -0.945,1.326 -1.04,1.294 z m 1.51,2.212 c -0.063,-0.158 -1.07,-1.168 -1.008,-1.263 0.136,-0.205 1.197,-1.358 1.354,-1.326 0.157,0.032 1.04,0.947 0.945,1.168 -0.093,0.22 -1.227,1.58 -1.29,1.42 z m 2.142,-2.495 c -0.157,-0.032 -1.008,-1.2 -1.008,-1.2 0.157,-0.253 1.92,-1.737 2.078,-1.705 0.157,0.032 0.85,0.758 0.693,1.042 -0.157,0.284 -1.606,1.895 -1.763,1.863 z m 0.882,1.295 -0.19,-0.316 c 0.22,-0.222 1.607,-1.706 1.607,-1.706 0,0 0.316,0.095 0.284,0.22 -0.03,0.127 -1.7,1.8 -1.7,1.8 z m 1.857,-4.137 c -0.125,0 -0.692,-0.98 -0.692,-1.105 0,-0.16 0.41,-0.6 0.598,-0.505 0.19,0.095 0.567,0.98 0.567,1.074 0,0.094 -0.346,0.536 -0.472,0.536 z m 0.127,-3.568 c -0.158,-0.032 -1.008,-1.42 -0.976,-1.516 0,0 0.694,-0.695 0.82,-0.6 0.126,0.095 0.66,1.42 0.63,1.642 -0.032,0.22 -0.315,0.506 -0.473,0.474 z M 8.5031265,18.808 c 0.252,-0.095 0,-2.716 -0.032,-2.874 -0.03,-0.158 1.5759995,-0.347 1.8599995,-0.316 0.282,0.032 0.188,-0.916 0.188,-1.01 0,-0.095 -2.8969995,-0.095 -3.1499995,-0.063 -0.25,0.032 -0.125,4.295 -0.125,4.295 0.22,0.315 1.008,0.062 1.26,-0.032 z"/>
</svg>
