<?xml version="1.0" encoding="UTF-8" standalone="no"?>
<svg
   xmlns:dc="http://purl.org/dc/elements/1.1/"
   xmlns:cc="http://creativecommons.org/ns#"
   xmlns:rdf="http://www.w3.org/1999/02/22-rdf-syntax-ns#"
   xmlns:svg="http://www.w3.org/2000/svg"
   xmlns="http://www.w3.org/2000/svg"
   xmlns:sodipodi="http://sodipodi.sourceforge.net/DTD/sodipodi-0.dtd"
   xmlns:inkscape="http://www.inkscape.org/namespaces/inkscape"
   version="1"
   width="933.333"
   height="933.333"
   viewBox="0 0 700.000000 700.000000"
   id="svg1155"
   sodipodi:docname="logo.svg"
   inkscape:version="1.0.1 (c497b03c, 2020-09-10)">
  <sodipodi:namedview
     pagecolor="#ffffff"
     bordercolor="#666666"
     borderopacity="1"
     objecttolerance="10"
     gridtolerance="10"
     guidetolerance="10"
     inkscape:pageopacity="0"
     inkscape:pageshadow="2"
     inkscape:window-width="2560"
     inkscape:window-height="1395"
     id="namedview838"
     showgrid="false"
     inkscape:zoom="0.53942165"
     inkscape:cx="20.66843"
     inkscape:cy="468.21483"
     inkscape:window-x="0"
     inkscape:window-y="23"
     inkscape:window-maximized="1"
     inkscape:current-layer="svg1155" />
  <metadata
     id="metadata1161">
    <rdf:RDF>
      <cc:Work
         rdf:about="">
        <dc:format>image/svg+xml</dc:format>
        <dc:type
           rdf:resource="http://purl.org/dc/dcmitype/StillImage" />
        <dc:title></dc:title>
      </cc:Work>
    </rdf:RDF>
  </metadata>
  <defs
     id="defs1159" />
  <path
     d="m 291.5,54.2 c -4.4,4.5 -21.4,19.7 -28.5,25.4 -14,11.3 -28.3,19.7 -41,24 -5.9,2 -20.5,2.5 -33,1.2 -3.6,-0.4 -8.7,-1 -11.5,-1.3 -14.3,-1.5 -17.3,-2 -25.6,-4.5 -7.8,-2.3 -17.3,-8.5 -20.9,-13.5 -1.4,-1.9 -2.9,-3.4 -3.5,-3.4 -0.5,0 -3.2,2.6 -6,5.8 -4.2,4.8 -9.6,10.7 -24.7,27.2 -1.2,1.4 -5.4,6.1 -9.3,10.4 -3.8,4.3 -8.1,9 -9.5,10.5 -3.7,4 -17.3,19.1 -18.5,20.4 -0.5,0.7 -3.7,4.1 -7,7.6 -5.3,5.7 -19.3,21.2 -23.5,26 -0.8,0.9 -5.4,5.9 -10.1,11.1 -16.9,18.3 -17.5,19.1 -15,20.1 0.8,0.3 10.3,8.9 31.5,28.8 4.4,4.1 10.8,10 14.1,13 3.3,3.1 8.5,7.9 11.5,10.7 3,2.8 7.1,6.5 9,8.3 1.9,1.8 8.6,8 14.9,13.9 6.3,5.8 12.3,11.4 13.5,12.4 1.1,1 5.3,4.8 9.2,8.5 15.8,15 28.7,26.7 29.6,27 0.5,0.2 1.7,-0.5 2.7,-1.7 2,-2.2 12.4,-13.5 38,-41 5.8,-6.3 13.3,-14.4 16.6,-18 3.3,-3.6 8.7,-9.3 12,-12.8 l 6,-6.3 7.1,6.8 c 3.9,3.7 9.8,9.1 13,12.1 3.3,3 11.1,10.2 17.4,16.1 6.3,5.9 12.7,11.8 14.2,13.2 2.3,2.1 22.9,21.2 27.8,25.8 0.9,0.8 6.7,6.2 13,12 20.2,18.6 22,20.4 30.3,28.1 l 8,7.6 -3.5,5.9 c -2,3.2 -4.5,7.5 -5.6,9.4 -3.6,6.5 -15.2,26.5 -16.2,28 -0.6,0.8 -1.3,2.2 -1.7,3 -0.4,0.8 -2.4,4.3 -4.5,7.8 -2.1,3.4 -3.8,6.4 -3.8,6.6 0,0.2 -2.4,4.4 -5.4,9.3 -2.9,4.9 -6.4,10.9 -7.8,13.3 -1.4,2.5 -10.7,18.6 -20.7,35.9 -10,17.3 -19.2,33.2 -20.5,35.5 -1.3,2.3 -9.3,16 -17.8,30.6 -8.5,14.6 -15.7,26.9 -15.9,27.5 -1.8,4.3 -11.4,19.3 -12.1,18.8 -1.36435,-5.19253 -3.06426,-11.73068 -5.5,-16.8 -9.2,-18.1 -28.6,-35.7 -52.8,-47.8 -12.5,-6.2 -31.1,-12.6 -42,-14.4 -33,-5.5 -57.9,-2.6 -77.7,9 -4.9,2.8 -12.9,10.7 -15.8,15.4 -14.1,23.2 -0.7,55.2 33.3,79.7 8.1,5.8 31.872854,17.13569 36,18.6 4.127146,1.46431 34.16284,7.22243 48.19157,7.56629 6.0004,0.0976 17.13914,0.58319 30.78933,-2.11685 13.65019,-2.70004 31.54363,-11.72877 39.35281,-16.96742 8.14725,-5.46544 18.10846,-14.06732 28.89222,-26.79591 C 323.94362,471.55506 413.36044,307.71371 510.98134,155.54619 523.60633,136.98955 523.6119,142.42464 546.7,147.4 c 16.9,3.4 37.4,11.9 45.3,18.8 2.1,1.8 6,7.5 6,8.7 0,0.5 2.4,3.4 5.3,6.5 7.5,7.9 14.5,10.9 25.6,11 4.7,0 10.6,-0.3 13.1,-0.7 2.5,-0.4 8.1,-1.3 12.5,-2 4.4,-0.8 10.6,-1.3 13.7,-1.3 3.1,0.1 5.4,-0.2 5,-0.5 -0.4,-0.4 -3.2,-2.3 -6.2,-4.2 -8.3,-5.6 -18.6,-15.3 -24.9,-23.8 -6.8,-9 -15.7,-26.6 -19.9,-39.4 -4.6,-13.9 -7.1,-18.5 -14,-25.3 C 599.9,87 585.4,80 572,77.6 c -1.4,-0.2 -3.6,-0.7 -5,-1 -5,-1.2 -10.8,-1.7 -27,-2.3 l -16.5,-0.5 -3.3,5.8 c -3.7,6.7 -4.3,7.8 -19.2,33.4 -20.7,35.6 -80.3,138.5 -82.8,143 -1.3,2.5 -2.8,4.9 -3.2,5.5 -0.7,0.9 -4.1,6.9 -7.4,13 -0.6,1.1 -1.9,3.1 -2.7,4.5 -0.9,1.4 -6.2,10.5 -11.9,20.3 -5.6,9.8 -10.6,17.6 -11,17.5 -0.5,-0.2 -5.9,-5 -12.1,-10.8 -6.2,-5.8 -14.2,-13.2 -17.7,-16.5 -3.6,-3.3 -7.7,-7.1 -9.2,-8.5 -3.5,-3.3 -22.6,-21 -26.5,-24.6 -1.6,-1.5 -8.1,-7.4 -14.3,-13.2 -6.2,-5.8 -12.5,-11.7 -14,-13 -14.6,-13.3 -23.2,-21.7 -23.2,-22.6 0,-0.6 2.4,-3.6 5.3,-6.7 2.9,-3 8.8,-9.5 13.2,-14.4 4.4,-4.9 8.9,-9.9 10,-11 1.6,-1.7 12.4,-13.7 20,-22.1 0.5,-0.6 2.8,-3.1 5,-5.5 2.2,-2.4 7.8,-8.7 12.5,-13.9 7.5,-8.4 14.5,-16.1 19,-21 4.3,-4.6 4.3,-4.6 0.7,-8.2 -1.8,-1.8 -10,-9.6 -18.2,-17.3 -8.2,-7.7 -17.2,-16.3 -20,-19 C 299.9,56.4 295.1,52 294.3,52.1 c -0.4,0 -1.7,0.9 -2.8,2.1 z"
     id="path1151"
     style="fill:#f26600;fill-opacity:1"
     sodipodi:nodetypes="cccccccssccccccccccssccccccsccccsccccccccscsccssscccccccczczsccccsccscccccccccccccccccccscccscscsccsccssccc" />
  <path
     d="m 405.59888,344.09888 c -0.8,1.3 -3.2,5.2 -5.3,8.8 -2.2,3.6 -4.3,7.2 -4.7,8 -0.4,0.8 -6.9,11.8 -14.6,24.4 l -13.9,22.8 6.2,5.6 c 3.3,3.1 8.6,7.9 11.6,10.8 3,2.9 6.5,6.1 7.8,7.2 1.3,1.1 7.2,6.6 13.1,12.1 6,5.6 12.1,11.3 13.7,12.8 1.6,1.4 7.9,7.2 13.9,12.8 6.1,5.7 13,12.1 15.5,14.3 2.5,2.2 6.8,6.2 9.6,8.9 2.7,2.6 10.1,9.5 16.4,15.3 6.3,5.8 13.7,12.6 16.5,15.2 2.7,2.5 6.4,5.9 8,7.4 1.7,1.5 6.4,5.9 10.5,9.8 4.2,3.9 12.7,11.8 19,17.6 6.2,5.8 12.5,11.6 14,13 1.4,1.4 7.8,7.2 14.1,13 6.3,5.8 12.1,11.2 12.9,12 0.8,0.8 4.2,4 7.5,7 5.6,5.2 24,22.2 36.5,33.8 l 5.5,5.2 6.5,-6.8 c 6.1,-6.4 23.8,-25.4 29.7,-31.8 1.4,-1.6 6.8,-7.4 11.9,-12.9 5,-5.5 10.4,-11.3 11.8,-12.8 1.4,-1.5 2.6,-3 2.6,-3.3 0,-0.5 -2,-2.4 -8.6,-8.3 -2.2,-1.9 -6.4,-5.7 -9.4,-8.5 -3.1,-2.8 -9.6,-8.7 -14.5,-13.1 -4.9,-4.4 -9.6,-8.7 -10.5,-9.5 -0.9,-0.8 -5.6,-5.1 -10.5,-9.5 -5,-4.4 -9.9,-8.9 -11,-10 -1.2,-1.1 -5.6,-5.2 -10,-9 -4.4,-3.9 -8.6,-7.7 -9.5,-8.5 -0.9,-0.8 -5.3,-4.9 -9.9,-9 -9,-8 -11.2,-10 -18.8,-17 -19.9,-18.3 -20.2,-18.5 -26.2,-19.1 -14,-1.5 -21.4,-5.7 -39.3,-22.5 -8.4,-7.7 -27.5,-25.4 -31.4,-29.1 -1.7,-1.5 -8.2,-7.5 -14.4,-13.3 -6.2,-5.8 -12.5,-11.6 -14,-13 -1.5,-1.4 -7.6,-7.1 -13.6,-12.6 -6,-5.6 -13.4,-12.5 -16.4,-15.3 -3,-2.8 -5.8,-5.1 -6.2,-5.1 -0.4,0 -1.4,1 -2.1,2.2 z"
     id="path1153"
     style="fill:#f26600;fill-opacity:1" />
</svg>
