<?xml version="1.0" standalone="no"?>
<!DOCTYPE svg PUBLIC "-//W3C//DTD SVG 20010904//EN"
 "http://www.w3.org/TR/2001/REC-SVG-20010904/DTD/svg10.dtd">
<svg version="1.0" xmlns="http://www.w3.org/2000/svg"
 width="700.000000pt" height="700.000000pt" viewBox="0 0 700.000000 700.000000"
 preserveAspectRatio="xMidYMid meet">
<metadata>
Created by potrace 1.11, written by Peter Selinger 2001-2013
</metadata>
<g transform="translate(0.000000,700.000000) scale(0.100000,-0.100000)"
fill="#000000" stroke="none">
<path d="M2888 6433 c-29 -26 -73 -67 -98 -90 -243 -224 -486 -373 -635 -391
-90 -10 -271 -5 -375 12 -14 2 -50 7 -80 11 -180 21 -268 57 -368 150 l-60 55
-35 -37 c-20 -21 -46 -50 -59 -64 -18 -20 -169 -185 -213 -233 -5 -6 -46 -51
-90 -101 -44 -49 -89 -99 -100 -111 -17 -17 -148 -162 -180 -198 -5 -7 -37
-41 -70 -76 -33 -36 -98 -108 -145 -160 -82 -92 -134 -149 -232 -255 -132
-143 -130 -137 -77 -184 55 -48 83 -74 304 -281 59 -55 196 -181 329 -304 17
-15 60 -56 97 -90 36 -33 114 -106 175 -162 176 -162 217 -200 260 -241 22
-21 62 -57 88 -81 55 -48 49 -49 125 32 25 27 62 66 81 87 19 20 78 84 130
140 52 56 109 117 125 135 17 18 73 79 125 135 52 57 122 131 155 166 l60 63
55 -53 c31 -28 109 -101 175 -162 65 -60 130 -121 145 -135 15 -14 80 -74 145
-135 66 -60 151 -140 190 -176 38 -36 104 -96 145 -135 205 -188 320 -295 383
-355 l70 -66 -35 -59 c-20 -32 -45 -75 -56 -94 -11 -19 -52 -91 -92 -160 -40
-69 -78 -134 -84 -145 -6 -11 -61 -105 -121 -208 -61 -104 -119 -205 -131
-225 -11 -20 -98 -172 -193 -336 -96 -165 -181 -314 -191 -330 -9 -17 -88
-152 -174 -301 -86 -148 -164 -283 -173 -300 -37 -68 -98 -154 -104 -147 -4 4
-14 34 -24 67 -47 167 -206 353 -422 491 -81 52 -248 129 -360 168 -57 19
-103 32 -103 30 0 -3 -8 0 -18 5 -10 5 -36 12 -58 15 -22 4 -49 8 -59 10 -35
7 -178 19 -235 20 -224 5 -451 -63 -568 -169 -104 -95 -144 -180 -144 -305 1
-178 117 -377 315 -538 84 -68 158 -113 311 -187 116 -56 157 -70 241 -81 28
-3 53 -8 56 -10 4 -2 23 -6 43 -9 77 -11 108 -15 158 -22 29 -4 107 -7 173 -7
109 1 152 4 240 20 107 19 335 125 439 205 109 83 229 211 291 312 31 51 60
99 66 107 38 61 92 151 109 180 11 19 30 52 42 72 80 130 128 213 128 220 0 4
4 8 9 8 5 0 14 12 20 28 6 15 40 74 75 132 73 119 169 279 176 295 3 6 37 64
76 130 137 229 508 860 588 998 199 344 894 1512 981 1647 12 19 104 168 205
330 225 362 321 508 352 537 48 45 61 44 264 -7 198 -50 289 -82 389 -137 56
-31 145 -115 145 -138 1 -14 67 -84 111 -118 87 -66 209 -76 444 -36 51 8 103
13 185 18 8 1 -10 18 -40 38 -103 70 -220 185 -285 283 -57 86 -136 250 -180
374 -19 54 -46 118 -60 141 -70 121 -227 220 -415 264 -113 26 -147 30 -340
37 -152 5 -166 4 -176 -13 -6 -10 -22 -38 -36 -63 -58 -104 -74 -132 -158
-275 -48 -82 -190 -328 -315 -545 -126 -217 -291 -503 -368 -635 -77 -132
-147 -253 -157 -270 -260 -455 -357 -615 -372 -615 -11 0 -41 26 -189 164
-100 94 -306 287 -345 322 -75 70 -241 223 -265 245 -74 68 -259 241 -311 291
-67 66 -68 63 11 146 28 30 83 90 123 135 40 45 94 104 120 131 25 28 55 60
65 72 10 12 54 61 98 109 44 48 85 93 90 99 6 6 48 54 95 106 47 52 104 115
126 140 23 25 53 58 68 74 14 16 26 35 26 41 0 15 -537 534 -577 559 -8 4 -33
-11 -65 -41z"/>
<path d="M4056 3558 c-32 -51 -146 -240 -146 -243 0 -1 -54 -91 -120 -199
l-119 -196 49 -46 c27 -25 57 -53 68 -62 24 -21 232 -214 328 -305 40 -38 83
-77 96 -88 12 -12 66 -60 118 -109 52 -48 109 -100 125 -115 17 -15 81 -76
144 -134 62 -58 125 -117 140 -130 25 -23 213 -197 256 -236 11 -11 55 -51 96
-90 41 -38 104 -97 140 -130 35 -33 119 -110 184 -171 66 -61 188 -173 270
-249 83 -76 157 -146 166 -154 9 -9 67 -63 130 -121 62 -58 136 -126 164 -152
l50 -47 44 47 c24 26 100 108 170 182 136 145 202 216 274 295 25 28 66 72 90
99 25 26 43 53 40 60 -2 6 -65 65 -139 131 -74 66 -152 136 -172 155 -21 19
-73 67 -116 105 -85 76 -105 94 -182 164 -27 25 -88 80 -134 121 -46 41 -91
82 -100 90 -8 8 -54 49 -100 90 -106 94 -89 79 -206 186 -167 155 -172 158
-254 169 -132 18 -195 59 -439 284 -57 53 -109 101 -115 106 -6 6 -47 44 -91
85 -157 146 -318 295 -338 312 -11 10 -72 66 -136 126 -186 174 -206 192 -213
192 -4 0 -14 -10 -22 -22z"/>
</g>
</svg>
